# xmcd CD database file
#
# Track frame offsets:
#	150
#	21825
#	44157
#	69686
#	87184
#	106656
#	123426
#	144858
#	171740
#
# Disc length: 2568 seconds
#
# Revision: 3
# Processed by: cddbd v1.5.2PL0 Copyright (c) Steve Scherf et al.
# Submitted via: CDex 1.70beta2
#
DISCID=7d0a0609
DTITLE=Babyface (Kenneth Brian Edmonds, 1959- ) - Return Of The Tender Lover
DYEAR=2015
DGENRE=Adult Contemporary
TTITLE0=We've Got Love - Kenneth Edmonds, Kameron Glasper, Daryl Simmons
TTITLE1=Fight Of Love  - Kenneth Edmonds, Daryl Simmons
TTITLE2=Exceptional - Kenneth Edmonds, Daryl Simmons
TTITLE3=Walking On Air (feat. El Debarge) - Kenneth Edmonds, Daryl Simmons
TTITLE4=I Want You (feat. After 7) - Kenneth Edmonds, Daryl Simmons
TTITLE5=Love And Devotion - Kenneth Edmonds, Daryl Simmons
TTITLE6=Standing Ovation - Kenneth Edmonds, Daryl Simmons
TTITLE7=Something Bout You - Kenneth Edmonds, Kameron Glasper, Daryl Simmons
TTITLE8=Our Love - Kenneth Edmonds, Kameron Glasper
EXTD=YEAR: 2015
EXTT0=
EXTT1=
EXTT2=
EXTT3=
EXTT4=
EXTT5=
EXTT6=
EXTT7=
EXTT8=
PLAYORDER=
